<?xml version="1.0" encoding="UTF-8" standalone="no"?>
<!-- Created with Inkscape (http://www.inkscape.org/) -->

<svg
   width="36.398998mm"
   height="10.209mm"
   viewBox="0 0 36.398998 10.208998"
   version="1.1"
   id="svg5"
   inkscape:version="1.3.1 (9b9bdc1480, 2023-11-25, custom)"
   sodipodi:docname="eesd.svg"
   xmlns:inkscape="http://www.inkscape.org/namespaces/inkscape"
   xmlns:sodipodi="http://sodipodi.sourceforge.net/DTD/sodipodi-0.dtd"
   xmlns="http://www.w3.org/2000/svg"
   xmlns:svg="http://www.w3.org/2000/svg">
  <sodipodi:namedview
     id="namedview1"
     pagecolor="#ffffff"
     bordercolor="#000000"
     borderopacity="0.25"
     inkscape:showpageshadow="2"
     inkscape:pageopacity="0.0"
     inkscape:pagecheckerboard="0"
     inkscape:deskcolor="#d1d1d1"
     inkscape:document-units="mm"
     showgrid="false"
     inkscape:zoom="5.3504742"
     inkscape:cx="97.000748"
     inkscape:cy="83.543997"
     inkscape:window-width="1872"
     inkscape:window-height="1136"
     inkscape:window-x="0"
     inkscape:window-y="0"
     inkscape:window-maximized="1"
     inkscape:current-layer="layer1" />
  <defs
     id="defs2" />
  <g
     inkscape:label="Layer 1"
     inkscape:groupmode="layer"
     id="layer1"
     transform="translate(-4.1743075,-39.195757)">
    <g
       id="g3508"
       transform="matrix(0.35277525,0,0,0.35277777,-20.632422,176.80484)">
      <path
         d="M 46.676772,-434.87792 H 192.37577 v 125.316 H 46.676772 Z"
         style="fill:#ffffff;fill-opacity:1;fill-rule:nonzero;stroke:none"
         id="path3510" />
      <path
         d="m 70.31835,-378.50136 h 6.132 v -6.332 h 14.438 v -5.258 h -20.57 z"
         style="fill:#e81b00;fill-opacity:1;fill-rule:nonzero;stroke:none"
         id="path3516" />
      <path
         d="m 70.31835,-361.65736 h 20.57 v -5.258 h -14.438 v -6.328 h -6.132 z"
         style="fill:#e81b00;fill-opacity:1;fill-rule:nonzero;stroke:none"
         id="path3518" />
      <path
         d="m 76.45035,-378.50136 h 13.203 v 5.258 h -13.203 z"
         style="fill:#e81b00;fill-opacity:1;fill-rule:nonzero;stroke:none"
         id="path3520" />
      <path
         d="m 96.15035,-390.09136 v 11.59 h 6.132 v -6.328 h 14.438 v -5.262 z"
         style="fill:#e81b00;fill-opacity:1;fill-rule:nonzero;stroke:none"
         id="path3522" />
      <path
         d="m 96.15035,-373.24336 v 11.59 h 20.57 v -5.258 h -14.438 v -6.332 z"
         style="fill:#e81b00;fill-opacity:1;fill-rule:nonzero;stroke:none"
         id="path3524" />
      <path
         d="m 102.28235,-378.50136 h 13.203 v 5.258 h -13.203 z"
         style="fill:#e81b00;fill-opacity:1;fill-rule:nonzero;stroke:none"
         id="path3526" />
      <g
         id="g3528"
         transform="translate(49.09135,-439.03236)">
        <path
           d="m 100.871,63.387 5.211,0.011 0.879,1.508 1.719,-3.851 1.332,8.465 1.933,-13.059 1.496,9.074 1.641,-3.832 0.527,2.656 1.149,-1.91 1.113,0.938 h 5.668"
           style="fill:none;stroke:#000000;stroke-width:1.26181;stroke-linecap:round;stroke-linejoin:round;stroke-miterlimit:4;stroke-dasharray:none;stroke-opacity:1"
           id="path3530" />
      </g>
      <path
         d="m 149.32135,-390.09136 v 11.602 h 5.77 v -6.66 h 5.48 c 2.7,0 4.5,0.777 5.399,2.336 0.652,1.097 1.07,2.539 1.258,4.324 h 6.054 c -0.086,-0.902 -0.234,-1.828 -0.441,-2.781 -0.359,-1.649 -1.035,-3.18 -2.027,-4.594 -1.235,-1.75 -2.848,-2.953 -4.844,-3.606 -1.168,-0.386 -2.637,-0.593 -4.399,-0.621 z m 0,16.84 v 6.66 h 5.77 v -6.66 z m 5.77,6.66 v 4.942 h 6.48 c 4.297,0 7.477,-1.77 9.532,-5.309 1.054,-1.816 1.742,-3.914 2.062,-6.293 h -6.047 c -0.152,0.91 -0.379,1.75 -0.683,2.512 -1.106,2.766 -3.063,4.148 -5.864,4.148 z"
         style="fill:#e81b09;fill-opacity:1;fill-rule:nonzero;stroke:none"
         id="path3532" />
      <path
         d="m 127.35335,-370.67736 c 0.168,1.231 0.504,2.153 1.004,2.758 0.914,1.11 2.476,1.664 4.691,1.664 1.328,0 2.406,-0.148 3.234,-0.437 1.571,-0.563 2.356,-1.602 2.356,-3.125 0,-0.887 -0.391,-1.574 -1.168,-2.063 -0.781,-0.476 -2.004,-0.894 -3.672,-1.261 l -2.848,-0.637 c -2.8,-0.633 -4.738,-1.32 -5.808,-2.066 -1.813,-1.239 -2.719,-3.184 -2.719,-5.825 0,-2.41 0.875,-4.414 2.629,-6.008 1.754,-1.593 4.328,-2.39 7.723,-2.39 2.836,0 5.254,0.754 7.25,2.262 2.007,1.5 3.062,3.679 3.16,6.539 h -5.406 c -0.098,-1.618 -0.805,-2.77 -2.118,-3.454 -0.879,-0.449 -1.968,-0.671 -3.269,-0.671 -1.449,0 -2.606,0.289 -3.469,0.875 -0.863,0.582 -1.297,1.398 -1.297,2.445 0,0.965 0.426,1.68 1.277,2.156 0.547,0.317 1.719,0.688 3.508,1.113 l 4.637,1.114 c 2.035,0.488 3.566,1.14 4.602,1.953 1.609,1.269 2.41,3.101 2.41,5.5 0,2.457 -0.942,4.504 -2.828,6.133 -1.875,1.621 -4.532,2.429 -7.965,2.429 -3.504,0 -6.262,-0.797 -8.27,-2.39 -2.011,-1.61 -3.015,-3.813 -3.015,-6.614 z"
         style="fill:#e81b00;fill-opacity:1;fill-rule:nonzero;stroke:none"
         id="path3534" />
    </g>
  </g>
</svg>
